<svg width="12" height="12" viewBox="0 0 12 12" fill="none" xmlns="http://www.w3.org/2000/svg">
<path d="M10.2857 0C11.2312 0 12 0.767411 12 1.71429V10.2857C12 11.2312 11.2312 12 10.2857 12H1.71429C0.767411 12 0 11.2312 0 10.2857V1.71429C0 0.767411 0.767411 0 1.71429 0H10.2857ZM9.10179 4.81607C9.39375 4.52411 9.39375 4.04732 9.10179 3.75536C8.80982 3.46339 8.33304 3.46339 8.04107 3.75536L5.14286 6.65357L3.95893 5.46964C3.66696 5.17768 3.19018 5.17768 2.89821 5.46964C2.60545 5.76161 2.60545 6.23839 2.89821 6.53036L4.6125 8.24464C4.90446 8.53661 5.38125 8.53661 5.67321 8.24464L9.10179 4.81607Z" fill="#0081A7"/>
</svg>
