<svg width="14" height="14" viewBox="0 0 14 14" fill="none" xmlns="http://www.w3.org/2000/svg">
<g clip-path="url(#clip0_1438_3054)">
<path d="M13.6802 12.1324L10.4072 8.85938C9.99621 9.46914 9.47039 9.99523 8.86035 10.4062L12.1334 13.6793C12.5605 14.1064 13.2531 14.1064 13.6802 13.6793C14.1068 13.2535 14.1068 12.559 13.6802 12.1324Z" fill="#0081A7"/>
<path opacity="0.4" d="M5.6629 0C2.54626 0 0 2.54652 0 5.6875C0 8.82848 2.54626 11.375 5.6629 11.375C8.77954 11.375 11.3504 8.82848 11.3504 5.6875C11.3504 2.54652 8.8293 0 5.6629 0ZM5.6629 9.1875C3.73297 9.1875 2.1629 7.61742 2.1629 5.6875C2.1629 3.75758 3.73297 2.1875 5.6629 2.1875C7.59282 2.1875 9.1629 3.75758 9.1629 5.6875C9.1629 7.61797 7.61797 9.1875 5.6629 9.1875Z" fill="#0081A7"/>
</g>
<defs>
<clipPath id="clip0_1438_3054">
<rect width="14" height="14" fill="white"/>
</clipPath>
</defs>
</svg>
